<svg xmlns="http://www.w3.org/2000/svg" viewBox="0 0 816 832" width="816" height="832" role="img" aria-label="ONOSPOD">
  <g transform="translate(0.000000,832.000000) scale(0.100000,-0.100000)" fill="#c40c68" stroke="none">
    <path d="M3650 5879 c-102 -11 -228 -41 -330 -79 -41 -15 -97 -35 -123 -45
-53 -19 -72 -33 -203 -152 -79 -72 -98 -95 -138 -174 -85 -166 -117 -345 -97
-535 6 -60 11 -130 11 -156 0 -34 4 -48 14 -48 8 0 15 -17 19 -48 3 -27 17
-70 31 -97 14 -26 26 -62 26 -79 0 -17 7 -56 15 -86 8 -30 17 -82 21 -115 3
-33 17 -83 30 -111 13 -28 32 -92 43 -142 11 -50 26 -103 34 -119 8 -15 25
-62 37 -103 12 -41 33 -94 47 -117 14 -24 31 -71 39 -105 8 -34 25 -82 38
-105 13 -23 32 -66 41 -95 10 -29 27 -66 39 -83 12 -16 30 -52 40 -80 10 -27
31 -70 47 -95 15 -25 37 -70 49 -100 12 -30 26 -60 31 -67 6 -6 26 -42 46 -80
89 -170 189 -352 205 -370 13 -16 46 -77 94 -173 14 -30 39 -68 54 -85 16 -16
33 -49 39 -71 12 -44 45 -74 81 -74 26 0 30 -99 5 -120 -8 -7 -15 -28 -15 -46
0 -33 1 -34 40 -34 26 0 40 -5 40 -13 0 -17 87 -137 100 -137 5 0 22 -19 39
-42 46 -67 229 -248 301 -298 35 -25 84 -61 110 -79 25 -19 77 -48 115 -64 39
-17 79 -36 91 -44 93 -61 403 -53 559 14 39 17 82 33 96 37 15 3 58 30 95 61
38 30 89 67 114 82 75 45 122 83 256 204 216 194 610 620 690 744 15 22 31 45
38 50 25 22 115 134 149 185 21 30 57 82 82 115 24 33 52 74 61 90 9 17 29 44
43 61 14 17 40 55 56 84 103 181 200 369 215 417 7 21 25 61 40 89 16 28 48
125 72 215 43 164 43 164 43 389 0 223 0 225 -26 275 -15 28 -32 73 -38 102
-7 28 -26 73 -43 99 -16 26 -34 58 -39 71 -19 52 -131 203 -180 244 -28 24
-70 62 -93 85 -23 22 -57 50 -77 61 -20 11 -47 30 -60 41 -76 65 -125 102
-134 102 -5 0 -32 16 -59 35 -28 19 -68 40 -90 46 -23 6 -66 26 -96 44 -30 18
-73 39 -95 46 -22 6 -58 24 -79 38 -22 14 -62 31 -90 36 -44 9 -53 15 -66 43
-15 32 -15 32 -96 26 -87 -7 -163 9 -227 46 -18 11 -58 28 -89 39 -30 10 -69
26 -86 35 -17 9 -75 25 -130 35 -54 11 -116 27 -138 36 -153 66 -323 113 -444
125 -69 6 -206 27 -305 45 -370 70 -722 98 -935 74z"/>
  </g>
  <g transform="translate(0.000000,832.000000) scale(0.100000,-0.100000)" fill="#48a05c" stroke="none">
    <path d="M2817 4716 c-4 -9 -18 -16 -32 -16 -15 0 -36 -5 -47 -11 -11 -6 -106
-15 -212 -20 -398 -18 -624 -41 -992 -100 -67 -10 -167 -19 -222 -19 -100 0
-100 0 -107 30 -6 26 -11 30 -40 30 -32 0 -34 -2 -37 -41 -3 -41 -4 -42 -53
-56 -27 -8 -97 -20 -155 -27 -77 -10 -122 -22 -170 -45 -36 -17 -77 -31 -91
-31 -15 0 -53 -14 -85 -31 -32 -16 -89 -39 -128 -49 -38 -11 -86 -31 -105 -44
-20 -14 -53 -28 -74 -31 -20 -4 -52 -18 -70 -31 -17 -13 -48 -32 -67 -43 -88
-49 -81 40 -78 -922 3 -854 3 -854 25 -894 11 -22 40 -76 62 -119 22 -43 47
-86 55 -95 7 -9 24 -36 36 -61 13 -25 33 -58 45 -75 13 -16 30 -48 39 -70 10
-22 25 -49 36 -60 10 -11 27 -40 38 -65 11 -25 27 -52 37 -60 18 -15 73 -94
115 -165 14 -23 42 -62 62 -86 21 -24 49 -57 63 -74 14 -16 39 -50 55 -75 49
-73 79 -113 114 -150 18 -19 40 -46 49 -59 39 -58 214 -239 423 -439 124 -117
148 -138 192 -166 22 -14 43 -30 46 -35 11 -18 124 -100 168 -122 24 -12 58
-32 75 -46 18 -13 51 -30 73 -38 22 -8 56 -25 77 -39 36 -25 44 -26 174 -26
136 0 136 0 225 42 49 22 107 56 128 75 22 18 45 33 51 33 7 0 54 36 104 80
51 44 97 80 103 80 5 0 35 24 66 53 31 29 88 79 125 111 152 131 387 379 501
530 38 50 75 95 82 99 8 4 30 31 49 60 19 29 49 70 65 92 17 22 50 70 75 108
25 37 49 67 53 67 5 0 19 18 31 40 13 23 32 46 43 53 10 7 33 38 50 69 31 58
31 58 101 58 70 0 70 0 65 50 -4 34 -13 59 -28 75 -20 21 -22 31 -19 110 4 87
4 87 42 117 21 17 45 45 54 62 9 17 44 63 77 101 77 87 138 169 161 215 10 19
34 53 53 75 43 50 145 212 178 283 13 30 37 70 53 90 16 21 34 54 41 75 6 21
23 51 36 67 14 16 33 53 43 82 10 29 30 70 44 91 17 24 28 58 32 95 3 31 19
98 35 147 45 137 48 359 7 490 -42 134 -54 157 -111 216 -63 67 -282 214 -346
233 -26 8 -70 26 -99 41 -41 20 -91 32 -224 51 -95 13 -195 29 -222 34 -106
22 -316 34 -505 30 -240 -6 -401 -4 -461 5 -37 5 -47 4 -52 -9z"/>
  </g>
  <g transform="translate(0.000000,832.000000) scale(0.100000,-0.100000)" fill="#f7d21e" stroke="none">
    <path d="M3395 7230 c-33 -5 -136 -11 -230 -15 -181 -6 -313 -21 -540 -60 -77
-14 -189 -31 -250 -39 -60 -8 -126 -21 -145 -29 -19 -8 -84 -25 -145 -37 -60
-13 -130 -33 -155 -45 -25 -13 -73 -31 -105 -40 -33 -10 -85 -30 -115 -45 -30
-15 -69 -31 -87 -34 -18 -4 -49 -19 -70 -33 -21 -14 -60 -36 -88 -48 -27 -13
-67 -37 -89 -54 -21 -17 -44 -31 -51 -31 -16 0 -200 -181 -249 -245 -65 -86
-110 -176 -137 -280 -15 -55 -35 -120 -44 -145 -26 -71 -17 -510 12 -595 12
-33 29 -109 38 -170 9 -60 28 -137 42 -170 14 -33 35 -98 48 -145 51 -185 77
-267 101 -313 19 -37 24 -62 24 -121 0 -73 0 -73 58 -80 32 -4 69 -14 83 -24
43 -30 392 -46 447 -20 19 10 28 22 30 45 3 30 5 31 65 38 34 4 67 11 72 15 6
4 53 22 105 39 95 31 95 31 372 31 323 0 308 5 308 -108 0 -63 15 -107 44
-131 44 -37 86 -267 86 -473 0 -87 2 -98 20 -108 11 -6 31 -22 46 -35 15 -14
30 -25 35 -25 19 0 75 -208 86 -317 5 -51 5 -52 40 -55 31 -3 37 -8 55 -53 12
-27 34 -81 50 -120 20 -47 43 -81 70 -105 35 -31 42 -46 64 -129 13 -51 24
-102 24 -112 0 -10 5 -19 10 -19 6 0 10 -6 10 -13 0 -7 15 -27 34 -43 24 -22
36 -42 41 -75 13 -73 70 -183 121 -231 68 -64 114 -167 114 -260 0 -38 0 -38
43 -38 40 0 45 -3 65 -39 35 -61 31 -135 -8 -158 -33 -19 -38 -47 -19 -102 11
-30 14 -32 52 -29 37 3 43 7 76 63 36 60 36 60 109 63 72 3 72 3 72 40 0 34 4
39 43 56 52 24 80 48 120 106 17 25 51 71 76 102 26 32 57 71 70 89 13 17 48
47 77 66 29 19 65 54 80 76 15 23 47 60 71 82 24 22 56 62 71 88 17 29 46 59
77 79 39 26 58 48 84 98 21 41 49 77 75 97 29 22 47 47 59 80 12 33 38 68 82
112 60 60 67 71 91 150 27 90 63 156 119 217 19 20 50 68 70 105 20 38 47 82
61 98 27 33 54 91 54 118 0 33 57 138 102 188 25 28 51 68 58 90 18 57 90 224
115 265 30 49 41 80 70 197 19 77 37 122 75 184 58 95 62 107 95 292 24 132
38 170 77 209 9 9 22 35 28 57 9 36 14 41 40 41 36 0 41 35 14 89 -13 25 -15
50 -10 114 28 379 16 642 -33 732 -15 28 -33 66 -41 85 -7 19 -25 51 -40 70
-15 19 -34 49 -43 65 -8 17 -40 58 -70 91 -29 34 -66 77 -81 97 -61 80 -374
274 -511 317 -22 7 -58 23 -81 36 -23 13 -74 31 -115 40 -40 9 -94 25 -119 36
-25 11 -90 28 -145 39 -54 11 -102 22 -106 25 -5 2 -56 16 -116 30 -156 36
-1034 77 -1188 54z"/>
  </g>
  <g transform="translate(0.000000,832.000000) scale(0.100000,-0.100000)" fill="#7f9a2b" stroke="none">
    <path d="M2727 4684 c-3 -3 -90 -10 -194 -15 -429 -20 -413 -18 -413 -55 0
-34 0 -34 274 -34 321 0 306 5 306 -108 0 -63 15 -107 44 -131 44 -37 86 -267
86 -473 0 -87 2 -98 20 -108 11 -6 31 -22 46 -35 15 -14 31 -25 35 -25 9 0 69
-181 69 -208 -1 -37 35 -132 50 -132 21 -1 42 -33 73 -110 55 -139 70 -166
109 -200 35 -31 42 -46 64 -129 13 -51 24 -102 24 -112 0 -10 5 -19 10 -19 6
0 10 -6 10 -13 0 -7 15 -27 34 -43 24 -22 36 -42 41 -75 13 -74 70 -183 123
-233 49 -47 83 -107 102 -183 6 -24 18 -49 26 -55 87 -72 114 -116 114 -184 0
-44 -4 -54 -25 -68 -25 -17 -35 -78 -19 -120 12 -31 82 -21 102 15 9 18 41 64
70 103 46 62 53 76 50 111 -3 34 -7 41 -27 43 -42 6 -70 32 -82 76 -6 22 -23
55 -39 71 -15 17 -40 55 -54 85 -48 96 -81 157 -94 173 -16 19 -114 196 -206
373 -19 36 -39 71 -45 77 -5 7 -19 37 -31 67 -12 30 -34 75 -49 100 -16 25
-37 68 -47 95 -10 28 -28 64 -40 80 -12 17 -29 54 -39 83 -9 29 -28 72 -41 95
-13 23 -30 71 -38 105 -8 34 -25 81 -39 105 -14 23 -35 76 -47 117 -12 41 -29
88 -37 103 -8 16 -23 69 -34 119 -11 50 -30 114 -43 142 -13 28 -27 78 -30
111 -4 33 -13 85 -21 115 -8 30 -15 69 -15 86 0 17 -12 53 -26 79 -14 27 -28
70 -31 97 -6 46 -7 48 -38 48 -17 0 -34 -3 -38 -6z"/>
  </g>
  <g transform="translate(0.000000,832.000000) scale(0.100000,-0.100000)" fill="#e01008" stroke="none">
    <path d="M3650 5879 c-102 -11 -228 -41 -330 -79 -41 -15 -97 -35 -123 -45
-53 -19 -72 -33 -204 -153 -184 -167 -260 -403 -232 -728 l12 -151 122 -7 c67
-4 230 -2 361 4 166 8 253 8 284 1 25 -6 72 -11 105 -11 33 0 87 -5 120 -10
33 -5 151 -23 262 -39 159 -24 214 -36 254 -57 29 -14 73 -32 99 -40 64 -19
283 -166 346 -233 57 -59 69 -82 111 -216 41 -131 38 -353 -7 -490 -16 -49
-32 -116 -35 -147 -4 -37 -15 -71 -32 -95 -14 -21 -34 -62 -44 -91 -10 -29
-29 -66 -43 -82 -13 -16 -30 -46 -36 -67 -7 -21 -25 -54 -41 -75 -16 -20 -40
-60 -53 -90 -33 -71 -135 -233 -178 -283 -19 -22 -43 -56 -53 -75 -23 -46 -84
-128 -161 -215 -33 -38 -68 -84 -77 -101 -9 -17 -33 -45 -54 -62 -38 -30 -38
-30 -42 -116 -4 -97 5 -116 51 -116 54 0 121 47 171 120 17 25 51 71 76 102
26 32 57 71 70 89 13 17 48 47 77 66 29 19 65 54 80 76 15 23 47 60 71 82 24
22 56 62 71 88 17 29 46 59 77 79 39 26 58 48 84 98 21 41 49 77 75 97 29 22
47 47 59 80 12 33 38 68 82 112 60 60 67 71 91 150 27 90 63 156 119 217 19
20 50 68 70 105 20 38 47 82 61 98 27 33 54 91 54 118 0 33 57 138 102 188 25
28 51 68 58 90 18 57 90 224 115 265 30 49 41 80 70 197 19 77 37 122 75 184
58 95 62 107 95 292 24 129 41 177 72 202 19 15 53 115 53 155 0 75 -5 80 -79
80 -73 0 -152 20 -204 50 -18 11 -58 28 -89 39 -30 10 -69 26 -86 35 -17 9
-75 25 -130 35 -54 11 -116 27 -138 36 -153 66 -323 113 -444 125 -69 6 -206
27 -305 45 -370 70 -722 98 -935 74z"/>
  </g>
  <g transform="translate(0.000000,832.000000) scale(0.100000,-0.100000)" fill="#800808" stroke="none">
    <path d="M2813 4711 c-7 -11 -13 -37 -13 -56 0 -34 1 -35 39 -35 60 0 72 -47
69 -266 -2 -159 -1 -171 20 -209 12 -22 22 -45 22 -52 0 -8 14 -13 39 -13 39
0 39 0 60 -86 12 -47 33 -108 47 -136 14 -27 34 -80 46 -116 11 -37 23 -71 27
-77 11 -15 29 -83 37 -140 4 -27 19 -75 35 -105 15 -30 31 -68 35 -83 4 -19
18 -34 40 -45 27 -12 38 -27 54 -71 11 -31 27 -68 35 -83 17 -30 20 -104 5
-113 -15 -10 -12 -63 6 -90 13 -19 25 -25 54 -25 21 0 42 -6 47 -12 23 -29 53
-132 53 -183 0 -82 13 -103 68 -107 45 -3 47 -4 58 -44 6 -22 19 -55 28 -72 9
-17 16 -54 16 -81 0 -73 15 -99 58 -103 32 -3 36 -7 49 -50 7 -26 18 -50 23
-53 6 -3 10 -25 10 -49 0 -52 13 -66 61 -66 37 0 37 0 41 61 4 57 7 64 42 92
20 16 44 44 53 61 9 17 44 63 77 101 77 87 138 169 161 215 10 19 34 53 53 75
43 50 145 212 178 283 13 30 37 70 53 90 16 21 34 54 41 75 6 21 23 51 36 67
14 16 33 53 43 82 10 29 30 70 44 91 17 24 28 58 32 95 3 31 19 98 35 147 45
137 48 359 7 490 -42 134 -54 157 -111 216 -63 67 -282 214 -346 233 -26 8
-70 26 -99 41 -41 20 -91 32 -224 51 -95 13 -195 29 -222 34 -106 22 -316 34
-505 30 -238 -6 -400 -4 -460 5 -39 5 -47 3 -57 -14z"/>
  </g>
</svg>
